{"glyphs":{":":{"x_min":0,"x_max":196,"ha":196,"o":""},"$":{"x_min":0,"x_max":540,"ha":540,"o":"m 327 -9 l 327 -141 l 235 -141 l 235 -12 q 112 -3 24 63 l 77 143 q 121 112 169 98 q 217 83 261 83 q 327 83 362 106 q 397 128 397 173 q 397 200 385 218 q 373 236 344 251 q 315 266 260 286 l 241 293 q 177 317 138 339 q 100 361 76 396 q 52 432 52 486 q 52 537 77 574 q 102 610 144 631 q 185 652 235 658 l 235 789 l 327 789 l 327 658 q 424 647 503 593 l 451 513 q 406 541 366 554 q 327 567 279 567 q 228 567 198 548 q 168 528 168 490 q 168 469 179 454 q 190 438 217 423 q 244 408 294 390 l 314 383 q 379 360 419 338 q 459 317 487 278 q 515 240 515 179 q 515 99 465 51 q 415 3 327 -9 z"},"?":{"x_min":0,"x_max":463,"ha":463,"o":"m 161 237 q 161 287 182 324 q 202 362 252 402 q 287 430 300 449 q 312 468 312 491 q 312 525 288 544 q 265 564 220 564 q 183 564 146 546 q 108 528 76 499 l 15 569 q 56 611 114 636 q 171 661 232 661 q 289 661 334 642 q 379 624 405 587 q 431 550 431 498 q 431 452 412 419 q 394 386 347 352 q 303 320 286 291 q 269 262 269 221 l 269 210 l 161 199 z m 143 59 q 143 78 152 94 q 162 110 178 120 q 195 129 214 129 q 233 129 250 120 q 266 110 276 94 q 285 78 285 59 q 285 40 276 24 q 266 8 250 -2 q 233 -11 214 -11 q 195 -11 178 -2 q 162 8 152 24 q 143 40 143 59 z"},"<":{"x_min":0,"x_max":540,"ha":540,"o":"m 474 385 l 149 256 l 474 127 l 438 42 l 66 190 l 66 320 l 438 470 z"},"'":{"x_min":0,"x_max":237,"ha":237,"o":"m 73 418 l 73 648 l 183 648 l 145 418 z"},"=":{"x_min":0,"x_max":540,"ha":540,"o":"m 66 293 l 66 384 l 474 384 l 474 293 z m 66 127 l 66 219 l 474 219 l 474 127 z"},"a":{"x_min":0,"x_max":480,"ha":480,"o":"m 419 310 l 419 0 l 325 0 l 317 37 q 280 10 242 -2 q 203 -13 162 -13 q 122 -13 92 2 q 61 17 44 44 q 27 72 27 108 q 27 162 65 198 q 103 235 167 253 q 231 271 311 273 l 311 290 q 311 333 295 352 q 279 371 239 371 q 170 371 91 320 l 47 389 q 95 423 146 440 q 197 457 255 457 q 337 457 378 422 q 419 387 419 310 z m 197 71 q 253 71 311 105 l 311 201 q 231 197 186 176 q 140 156 140 120 q 140 96 154 84 q 169 71 197 71 z"},"L":{"x_min":0,"x_max":515,"ha":515,"o":"m 191 99 l 499 99 l 499 0 l 77 0 l 77 648 l 191 648 z"},"3":{"x_min":0,"x_max":540,"ha":540,"o":"m 476 188 q 476 131 450 86 q 423 40 368 14 q 312 -13 230 -13 q 176 -13 128 -2 q 79 10 47 27 l 85 111 q 114 97 150 89 q 187 81 226 81 q 290 81 324 108 q 359 134 359 183 q 359 219 346 244 q 332 268 298 281 q 265 294 205 294 l 159 294 l 167 378 l 243 378 q 284 394 307 410 q 330 427 340 447 q 350 467 350 495 q 350 515 338 532 q 327 549 304 560 q 282 570 249 570 q 212 570 174 554 q 136 538 101 511 l 44 575 q 89 617 142 638 q 195 660 254 660 q 321 660 368 639 q 415 618 438 582 q 462 545 462 499 q 462 449 431 412 q 400 374 345 352 q 411 334 444 292 q 476 249 476 188 z"},";":{"x_min":0,"x_max":196,"ha":196,"o":""},"J":{"x_min":0,"x_max":461,"ha":461,"o":"m -2 49 l 56 129 q 84 107 112 96 q 139 86 173 86 q 224 86 250 116 q 277 147 277 201 l 277 648 l 391 648 l 391 198 q 391 121 361 74 q 331 27 284 7 q 238 -13 183 -13 q 76 -13 -2 49 z"},"V":{"x_min":0,"x_max":638,"ha":638,"o":"m 507 648 l 623 648 l 623 641 l 385 0 l 253 0 l 15 641 l 15 648 l 135 648 l 321 113 z"},"\"":{"x_min":0,"x_max":403,"ha":403,"o":""},"7":{"x_min":0,"x_max":540,"ha":540,"o":"m 495 648 l 495 600 q 383 446 318 298 q 253 150 232 0 l 113 0 q 149 272 356 554 l 44 554 l 56 648 z"},"S":{"x_min":0,"x_max":556,"ha":556,"o":"m 25 63 l 78 143 q 122 112 170 98 q 218 83 262 83 q 328 83 363 106 q 398 128 398 173 q 398 200 386 218 q 374 236 345 251 q 316 266 261 286 l 242 293 q 178 317 140 339 q 101 361 77 396 q 53 432 53 486 q 53 544 86 584 q 118 623 170 642 q 222 661 281 661 q 403 661 504 593 l 452 513 q 407 541 368 554 q 328 567 280 567 q 229 567 199 548 q 169 528 169 490 q 169 469 180 454 q 191 438 218 423 q 245 408 295 390 l 315 383 q 380 360 420 338 q 460 317 488 278 q 516 240 516 179 q 516 117 484 74 q 453 30 398 8 q 342 -13 268 -13 q 194 -13 133 7 q 72 27 25 63 z"},"}":{"x_min":0,"x_max":360,"ha":360,"o":"m 20 -42 q 66 -37 92 -26 q 118 -16 129 0 q 140 17 140 43 q 140 58 134 112 q 127 165 127 190 q 127 226 140 252 q 154 278 176 292 q 198 305 223 308 q 198 311 176 324 q 154 338 140 364 q 127 389 127 426 q 127 452 134 504 q 140 558 140 573 q 140 599 129 615 q 118 631 92 640 q 66 649 20 651 l 38 746 q 139 737 193 699 q 247 661 247 587 q 247 575 244 550 q 241 524 240 512 q 232 454 232 434 q 232 402 240 385 q 249 368 268 360 q 287 353 320 352 l 320 264 q 287 263 268 256 q 249 248 240 231 q 232 214 232 182 q 232 162 240 104 q 241 92 244 66 q 247 41 247 29 q 247 -45 193 -83 q 139 -121 38 -130 z"},"Z":{"x_min":0,"x_max":567,"ha":567,"o":"m 525 648 l 525 593 l 187 98 l 514 98 l 514 0 l 32 0 l 32 55 l 372 550 l 52 550 l 64 648 z"},"x":{"x_min":0,"x_max":470,"ha":470,"o":"m 304 230 l 458 7 l 458 0 l 332 0 l 234 159 l 127 0 l 12 0 l 12 7 l 169 228 l 21 437 l 21 443 l 145 443 l 239 298 l 334 443 l 446 443 l 446 437 z"},")":{"x_min":0,"x_max":360,"ha":360,"o":"m 20 -87 q 99 -6 142 86 q 185 179 185 303 q 185 428 142 521 q 99 614 20 694 l 82 746 q 152 682 198 620 q 244 559 270 481 q 296 403 296 303 q 296 204 270 126 q 244 48 198 -14 q 151 -76 82 -139 z"},"&":{"x_min":0,"x_max":676,"ha":676,"o":"m 595 -13 l 493 73 q 442 32 382 10 q 322 -13 255 -13 q 193 -13 145 7 q 97 27 70 66 q 42 105 42 159 q 42 225 76 269 q 109 313 169 350 q 122 394 103 428 q 84 461 84 501 q 84 543 106 580 q 128 617 169 639 q 210 661 266 661 q 319 661 360 644 q 402 626 426 594 q 449 561 449 516 q 449 475 432 444 q 415 412 388 390 q 362 367 323 343 l 492 203 q 529 255 561 326 l 656 286 q 616 202 565 143 l 665 60 z m 255 400 q 298 426 320 452 q 343 477 343 511 q 343 540 322 559 q 302 578 267 578 q 228 578 209 556 q 190 534 190 501 q 190 478 204 456 q 218 434 255 400 z m 425 131 l 236 291 q 197 265 176 236 q 155 206 155 167 q 155 143 168 123 q 180 103 206 90 q 232 78 270 78 q 355 78 425 131 z"},"_":{"x_min":0,"x_max":540,"ha":540,"o":"m 43 -161 l 43 -70 l 497 -70 l 497 -161 z"},"v":{"x_min":0,"x_max":462,"ha":462,"o":"m 457 443 l 457 437 l 285 0 l 181 0 l 5 437 l 5 443 l 122 443 l 215 180 q 229 141 236 108 q 238 117 243 134 q 248 152 256 180 l 340 443 z"},"O":{"x_min":0,"x_max":712,"ha":712,"o":"m 42 326 q 42 438 85 514 q 128 589 200 625 q 272 661 360 661 q 460 661 530 618 q 600 576 635 500 q 670 423 670 322 q 670 210 627 134 q 584 59 512 23 q 441 -13 353 -13 q 253 -13 183 30 q 113 72 78 148 q 42 225 42 326 z m 552 321 q 552 395 531 450 q 510 505 467 536 q 424 566 360 566 q 294 566 249 536 q 204 506 182 452 q 160 399 160 327 q 160 214 209 148 q 258 82 353 82 q 418 82 463 112 q 508 142 530 196 q 552 249 552 321 z"},"(":{"x_min":0,"x_max":360,"ha":360,"o":"m 64 303 q 64 403 90 481 q 116 559 162 620 q 208 682 278 746 l 340 694 q 261 614 218 521 q 175 428 175 303 q 175 179 218 86 q 261 -6 340 -87 l 278 -139 q 209 -76 162 -14 q 116 48 90 126 q 64 204 64 303 z"},"C":{"x_min":0,"x_max":575,"ha":575,"o":"m 42 321 q 42 441 84 517 q 125 593 193 627 q 261 661 344 661 q 405 661 456 646 q 508 631 557 602 l 511 517 q 433 564 350 564 q 253 564 208 502 q 162 439 162 327 q 162 212 212 148 q 262 85 356 85 q 404 85 441 98 q 478 110 517 133 l 562 51 q 508 19 458 3 q 407 -13 347 -13 q 242 -13 174 28 q 106 70 74 145 q 42 220 42 321 z"},"W":{"x_min":0,"x_max":920,"ha":920,"o":"m 901 648 l 901 641 l 727 0 l 588 0 l 491 379 q 473 454 460 539 q 447 454 429 379 l 336 0 l 196 0 l 19 641 l 19 648 l 135 648 l 234 265 q 242 237 252 192 q 261 148 268 106 q 283 208 298 265 l 398 648 l 529 648 l 629 268 q 646 204 662 105 q 676 186 695 268 l 788 648 z"},"A":{"x_min":0,"x_max":648,"ha":648,"o":"m 394 648 l 633 7 l 633 0 l 513 0 l 452 172 l 192 172 l 132 0 l 15 0 l 15 7 l 253 648 z m 224 264 l 419 264 l 321 542 z"},"f":{"x_min":0,"x_max":330,"ha":330,"o":"m 199 520 l 199 443 l 326 443 l 315 358 l 199 358 l 199 0 l 91 0 l 91 358 l 17 358 l 17 443 l 91 443 l 91 518 q 91 570 110 610 q 130 650 168 672 q 206 695 259 695 q 318 695 365 676 l 338 591 q 304 605 268 605 q 235 605 217 582 q 199 560 199 520 z"},"Q":{"x_min":0,"x_max":712,"ha":712,"o":"m 625 -155 l 398 -10 q 376 -13 353 -13 q 253 -13 183 30 q 113 72 78 148 q 42 225 42 326 q 42 438 85 514 q 128 589 200 625 q 272 661 360 661 q 460 661 530 618 q 600 576 635 500 q 670 423 670 322 q 670 218 628 142 q 585 67 512 27 l 687 -60 z m 353 82 q 418 82 463 112 q 508 142 530 196 q 552 249 552 321 q 552 395 531 450 q 510 505 467 536 q 424 566 360 566 q 294 566 249 536 q 204 506 182 452 q 160 399 160 327 q 160 214 209 148 q 258 82 353 82 z"},"w":{"x_min":0,"x_max":676,"ha":676,"o":"m 668 443 l 668 437 l 537 0 l 434 0 l 361 246 q 346 297 341 328 q 335 289 322 246 l 252 -1 l 149 -1 l 9 437 l 9 443 l 126 443 l 191 196 q 199 166 205 127 q 216 178 221 196 l 290 443 l 399 443 l 469 199 q 481 154 487 119 q 491 157 500 199 l 559 443 z"},"-":{"x_min":0,"x_max":380,"ha":380,"o":"m 47 220 l 47 316 l 333 316 l 333 220 z"},"E":{"x_min":0,"x_max":546,"ha":546,"o":"m 191 95 l 500 95 l 500 0 l 77 0 l 77 648 l 495 648 l 495 554 l 191 554 l 191 376 l 455 376 l 442 284 l 191 284 z"},"s":{"x_min":0,"x_max":428,"ha":428,"o":"m 16 47 l 62 120 q 133 69 213 69 q 252 69 272 82 q 293 95 293 119 q 293 133 286 144 q 278 154 258 164 q 238 174 201 184 l 171 192 q 100 211 68 242 q 36 273 36 324 q 36 363 58 393 q 80 423 120 440 q 159 457 209 457 q 304 457 386 409 l 344 337 q 302 359 273 367 q 244 375 211 375 q 180 375 163 363 q 146 351 146 331 q 146 319 152 310 q 158 302 173 296 q 188 289 216 282 l 248 274 q 329 252 366 218 q 402 183 402 129 q 402 88 381 56 q 360 24 318 6 q 276 -13 216 -13 q 155 -13 106 2 q 58 17 16 47 z"},">":{"x_min":0,"x_max":540,"ha":540,"o":"m 102 469 l 474 321 l 474 191 l 102 41 l 66 126 l 391 255 l 66 384 z"},"l":{"x_min":0,"x_max":239,"ha":239,"o":"m 66 0 l 66 688 l 174 699 l 174 0 z"},"8":{"x_min":0,"x_max":540,"ha":540,"o":"m 513 170 q 513 113 485 72 q 457 30 403 8 q 349 -13 273 -13 q 197 -13 142 8 q 88 30 59 70 q 30 110 30 165 q 30 220 64 262 q 97 304 173 339 q 64 403 64 496 q 64 548 92 585 q 120 622 168 641 q 216 660 275 660 q 341 660 388 638 q 434 617 458 581 q 481 545 481 502 q 481 455 450 416 q 418 378 365 348 q 416 322 448 298 q 479 274 496 243 q 513 212 513 170 z m 177 495 q 177 462 204 436 q 230 411 292 382 q 330 403 349 431 q 368 459 368 489 q 368 529 344 552 q 319 574 273 574 q 227 574 202 552 q 177 531 177 495 z m 396 166 q 396 200 378 222 q 361 245 332 261 q 304 277 248 302 q 191 275 168 244 q 146 214 146 180 q 146 151 160 128 q 174 104 202 90 q 231 76 273 76 q 315 76 342 89 q 370 102 383 122 q 396 142 396 166 z"},"\\":{"x_min":0,"x_max":513,"ha":513,"o":"m 376 -141 l 42 744 l 137 775 l 472 -111 z"},"e":{"x_min":0,"x_max":476,"ha":476,"o":"m 440 200 l 142 200 q 146 134 180 103 q 213 72 263 72 q 299 72 328 82 q 357 91 394 112 l 432 42 q 396 17 352 2 q 307 -13 255 -13 q 191 -13 142 10 q 92 33 63 84 q 34 135 34 216 q 34 286 59 340 q 84 395 133 426 q 182 457 251 457 q 313 457 356 432 q 399 408 421 364 q 443 321 443 267 q 443 236 440 200 z m 147 275 l 339 275 l 339 278 q 339 330 316 354 q 292 379 252 379 q 208 379 182 352 q 156 325 147 275 z"},"b":{"x_min":0,"x_max":527,"ha":527,"o":"m 493 232 q 493 144 456 89 q 418 34 360 10 q 302 -13 237 -13 q 204 -13 160 -6 q 116 0 66 15 l 66 688 l 174 699 l 174 415 q 247 457 317 457 q 405 457 449 397 q 493 337 493 232 z m 380 234 q 380 303 357 336 q 334 370 283 370 q 236 370 174 341 l 174 77 q 204 71 232 71 q 299 71 340 110 q 380 149 380 234 z"},"%":{"x_min":0,"x_max":950,"ha":950,"o":"m 40 471 q 40 529 66 572 q 93 615 137 638 q 181 661 234 661 q 286 661 330 638 q 374 616 400 573 q 427 530 427 472 q 427 411 401 368 q 375 324 331 302 q 287 279 234 279 q 181 279 136 302 q 92 324 66 368 q 40 411 40 471 z m 285 -13 l 213 35 l 667 661 l 739 614 z m 322 470 q 322 518 299 548 q 276 577 234 577 q 191 577 168 548 q 145 519 145 473 q 145 425 168 394 q 191 363 234 363 q 262 363 282 378 q 302 392 312 416 q 322 440 322 470 z m 523 179 q 523 237 550 280 q 576 323 620 346 q 664 369 717 369 q 769 369 813 346 q 857 324 884 281 q 910 238 910 180 q 910 119 884 76 q 858 32 814 10 q 770 -13 717 -13 q 664 -13 620 10 q 575 32 549 76 q 523 119 523 179 z m 805 178 q 805 226 782 256 q 759 285 717 285 q 674 285 651 256 q 628 227 628 181 q 628 133 651 102 q 674 71 717 71 q 745 71 765 86 q 785 100 795 124 q 805 148 805 178 z"},"m":{"x_min":0,"x_max":782,"ha":782,"o":"m 721 321 l 721 0 l 613 0 l 613 284 q 613 317 607 336 q 601 354 588 362 q 575 370 552 370 q 503 370 446 340 q 447 334 447 321 l 447 0 l 339 0 l 339 284 q 339 317 333 336 q 327 354 314 362 q 301 370 278 370 q 254 370 227 362 q 200 354 174 340 l 174 0 l 66 0 l 66 442 l 174 453 l 174 414 q 249 457 320 457 q 396 457 426 407 q 464 429 507 443 q 550 457 594 457 q 654 457 688 424 q 721 390 721 321 z"},"#":{"x_min":0,"x_max":540,"ha":540,"o":"m 525 429 l 445 429 l 414 223 l 484 223 l 484 142 l 401 142 l 380 0 l 285 0 l 306 142 l 178 142 l 157 0 l 63 0 l 84 142 l 15 142 l 15 223 l 97 223 l 128 429 l 56 429 l 56 510 l 140 510 l 161 648 l 255 648 l 234 510 l 362 510 l 383 648 l 478 648 l 457 510 l 525 510 z m 319 223 l 350 429 l 222 429 l 191 223 z"},",":{"x_min":0,"x_max":196,"ha":196,"o":"m 24 -127 q 74 -58 74 -25 q 74 -14 69 -8 q 64 -1 54 7 q 41 17 34 28 q 27 39 27 60 q 27 78 36 94 q 45 109 62 119 q 78 129 98 129 q 129 129 149 106 q 169 84 169 44 q 169 -46 79 -158 z"},"n":{"x_min":0,"x_max":527,"ha":527,"o":"m 466 319 l 466 0 l 358 0 l 358 284 q 358 317 352 336 q 345 354 330 362 q 314 370 287 370 q 236 370 174 339 l 174 0 l 66 0 l 66 442 l 174 453 l 174 410 q 255 457 330 457 q 395 457 430 424 q 466 390 466 319 z"},"h":{"x_min":0,"x_max":525,"ha":525,"o":"m 465 321 l 465 0 l 357 0 l 357 284 q 357 317 350 336 q 343 354 328 362 q 312 370 285 370 q 232 370 174 340 l 174 0 l 66 0 l 66 688 l 174 699 l 174 414 q 251 457 328 457 q 393 457 429 424 q 465 391 465 321 z"},"z":{"x_min":0,"x_max":431,"ha":431,"o":"m 403 443 l 403 396 l 176 91 l 402 91 l 402 0 l 22 0 l 22 49 l 252 352 l 38 352 l 50 443 z"},"B":{"x_min":0,"x_max":602,"ha":602,"o":"m 560 185 q 560 129 532 88 q 505 46 451 23 q 397 0 320 0 l 77 0 l 77 648 l 308 648 q 380 648 431 626 q 482 605 508 567 q 535 529 535 479 q 535 433 509 396 q 483 360 429 341 q 474 330 504 306 q 533 281 546 250 q 560 219 560 185 z m 191 556 l 191 376 l 294 376 q 350 376 384 398 q 419 420 419 470 q 419 509 390 532 q 361 556 308 556 z m 442 189 q 442 234 411 260 q 380 287 318 287 l 191 287 l 191 93 l 316 93 q 383 93 412 120 q 442 147 442 189 z"},"K":{"x_min":0,"x_max":615,"ha":615,"o":"m 319 340 l 606 7 l 606 0 l 467 0 l 191 327 l 191 0 l 77 0 l 77 648 l 191 648 l 191 343 l 464 648 l 593 648 l 593 641 z"},"R":{"x_min":0,"x_max":590,"ha":590,"o":"m 573 7 l 573 0 l 444 0 l 269 245 l 191 245 l 191 0 l 77 0 l 77 648 l 291 648 q 371 648 426 623 q 480 598 508 554 q 535 510 535 452 q 535 383 498 332 q 460 280 388 259 z m 191 335 l 277 335 q 345 335 381 364 q 417 392 417 448 q 417 500 384 527 q 352 554 290 554 l 191 554 z"},"T":{"x_min":0,"x_max":577,"ha":577,"o":"m 561 648 l 561 550 l 347 550 l 347 0 l 233 0 l 233 550 l 16 550 l 16 648 z"},"P":{"x_min":0,"x_max":569,"ha":569,"o":"m 544 446 q 544 384 516 335 q 488 286 431 258 q 374 229 292 229 l 191 229 l 191 0 l 77 0 l 77 648 l 298 648 q 379 648 434 622 q 489 597 516 552 q 544 506 544 446 z m 426 442 q 426 497 393 526 q 360 554 296 554 l 191 554 l 191 323 l 282 323 q 426 323 426 442 z"},"|":{"x_min":0,"x_max":270,"ha":270,"o":"m 84 -186 l 84 755 l 186 755 l 186 -186 z"},"t":{"x_min":0,"x_max":366,"ha":366,"o":"m 354 17 q 296 -13 234 -13 q 195 -13 164 2 q 133 17 115 49 q 97 81 97 129 l 97 358 l 12 358 l 12 443 l 97 443 l 97 543 l 205 559 l 205 443 l 343 443 l 332 358 l 205 358 l 205 146 q 205 109 218 92 q 232 75 258 75 q 273 75 288 79 q 303 83 324 91 z"},"M":{"x_min":0,"x_max":831,"ha":831,"o":"m 754 648 l 754 0 l 642 0 l 642 455 q 625 410 601 363 l 464 94 l 366 94 l 231 363 q 199 425 187 457 l 187 0 l 77 0 l 77 648 l 200 648 l 347 363 q 398 262 416 208 q 435 267 485 363 l 633 648 z"},"g":{"x_min":0,"x_max":511,"ha":511,"o":"m 500 -42 q 500 -89 470 -124 q 439 -160 382 -180 q 326 -199 249 -199 q 150 -199 88 -168 q 27 -137 27 -73 q 27 -36 46 -10 q 65 15 98 35 q 69 58 69 89 q 69 109 80 127 q 92 145 119 164 q 81 184 62 218 q 43 252 43 295 q 43 351 72 387 q 101 423 148 440 q 196 457 254 457 q 284 457 312 452 l 465 516 l 499 430 l 401 405 q 428 384 442 356 q 455 327 455 292 q 455 237 426 202 q 397 168 350 152 q 303 137 246 137 q 217 137 185 142 q 176 130 176 117 q 176 108 182 102 q 189 96 206 92 q 222 89 253 86 l 322 80 q 381 75 420 62 q 459 49 480 24 q 500 -1 500 -42 z m 152 296 q 152 257 176 236 q 201 215 252 215 q 303 215 325 236 q 347 257 347 294 q 347 334 322 356 q 297 378 249 378 q 200 378 176 356 q 152 334 152 296 z m 384 -57 q 384 -41 374 -31 q 363 -21 340 -15 q 317 -9 277 -5 l 212 0 q 183 3 159 9 q 145 -6 137 -24 q 129 -41 129 -57 q 129 -88 157 -104 q 185 -120 251 -120 q 310 -120 347 -104 q 384 -89 384 -57 z"},"j":{"x_min":0,"x_max":239,"ha":239,"o":"m 47 594 q 47 613 57 630 q 67 646 84 656 q 100 666 119 666 q 139 666 156 656 q 173 646 183 630 q 193 613 193 594 q 193 575 183 558 q 173 542 156 532 q 139 523 119 523 q 100 523 84 532 q 67 542 57 558 q 47 575 47 594 z m -75 -179 l -49 -101 q -16 -112 7 -112 q 37 -112 52 -95 q 66 -78 66 -43 l 66 443 l 174 455 l 174 -38 q 174 -118 134 -158 q 94 -199 24 -199 q -26 -199 -75 -179 z"},"i":{"x_min":0,"x_max":239,"ha":239,"o":"m 46 594 q 46 613 56 630 q 66 646 82 656 q 99 666 118 666 q 138 666 155 656 q 172 646 182 630 q 192 613 192 594 q 192 575 182 558 q 172 542 155 532 q 138 523 118 523 q 99 523 82 532 q 66 542 56 558 q 46 575 46 594 z m 66 0 l 66 442 l 174 453 l 174 0 z"},"y":{"x_min":0,"x_max":459,"ha":459,"o":"m 453 443 l 453 437 l 300 -10 q 277 -78 249 -120 q 221 -161 184 -180 q 147 -199 96 -199 q 51 -199 3 -183 l 31 -104 q 59 -113 87 -113 q 111 -113 129 -106 q 147 -99 164 -78 q 180 -56 196 -14 l 201 0 l 172 0 l 4 437 l 4 443 l 118 443 l 210 180 q 226 136 235 100 q 251 158 258 180 l 342 443 z"},"@":{"x_min":0,"x_max":905,"ha":905,"o":"m 864 297 q 864 236 842 184 q 821 133 778 102 q 736 70 676 70 q 638 70 612 82 q 585 93 568 116 q 499 69 424 69 q 366 69 328 96 q 290 123 272 168 q 254 212 254 266 q 254 335 284 384 q 314 432 362 456 q 411 481 467 481 q 562 481 632 445 l 632 206 q 632 178 644 164 q 656 151 683 151 q 725 151 745 190 q 765 228 765 298 q 765 423 695 501 q 625 579 465 579 q 367 579 294 540 q 220 502 180 429 q 140 356 140 256 q 140 164 177 98 q 214 31 282 -4 q 351 -39 445 -39 q 501 -39 546 -31 q 590 -23 635 -4 l 663 -81 q 610 -104 558 -114 q 506 -124 445 -124 q 328 -124 236 -77 q 145 -30 94 56 q 42 143 42 256 q 42 383 98 474 q 153 566 250 614 q 348 661 472 661 q 596 661 684 613 q 773 565 818 482 q 864 400 864 297 z m 445 153 q 492 153 534 178 l 534 396 q 506 402 473 402 q 419 402 389 368 q 359 335 359 269 q 359 213 380 183 q 401 153 445 153 z"},".":{"x_min":0,"x_max":196,"ha":196,"o":"m 27 59 q 27 78 36 94 q 46 110 62 120 q 79 129 98 129 q 117 129 134 120 q 150 110 160 94 q 169 78 169 59 q 169 40 160 24 q 150 8 134 -2 q 117 -11 98 -11 q 79 -11 62 -2 q 46 8 36 24 q 27 40 27 59 z"},"p":{"x_min":0,"x_max":527,"ha":527,"o":"m 493 233 q 493 152 461 96 q 429 41 376 14 q 324 -13 260 -13 q 220 -13 174 -1 l 174 -186 l 66 -186 l 66 442 l 174 453 l 174 414 q 208 435 243 446 q 278 457 311 457 q 372 457 413 428 q 454 400 474 350 q 493 299 493 233 z m 380 232 q 380 305 354 338 q 329 370 277 370 q 228 370 174 339 l 174 79 q 212 69 246 69 q 307 69 344 110 q 380 151 380 232 z"},"X":{"x_min":0,"x_max":603,"ha":603,"o":"m 369 340 l 588 0 l 452 0 l 300 258 l 138 0 l 15 0 l 231 332 l 24 648 l 159 648 l 304 413 l 451 648 l 574 648 z"},"*":{"x_min":0,"x_max":500,"ha":500,"o":"m 443 510 l 303 483 l 402 381 l 316 322 l 250 444 l 184 322 l 98 381 l 197 483 l 57 510 l 90 606 l 216 547 l 197 688 l 302 688 l 284 547 l 410 606 z"},"Y":{"x_min":0,"x_max":615,"ha":615,"o":"m 600 648 l 600 641 l 362 260 l 362 0 l 248 0 l 248 261 l 15 641 l 15 648 l 142 648 l 307 364 l 479 648 z"},"c":{"x_min":0,"x_max":430,"ha":430,"o":"m 34 211 q 34 295 67 350 q 100 406 152 432 q 204 457 262 457 q 299 457 333 448 q 367 438 407 417 l 368 341 q 335 357 311 364 q 287 370 262 370 q 208 370 177 329 q 146 288 146 212 q 146 76 261 76 q 292 76 318 86 q 345 96 376 114 l 416 41 q 378 17 337 2 q 296 -13 248 -13 q 153 -13 94 40 q 34 92 34 211 z"},"!":{"x_min":0,"x_max":223,"ha":223,"o":"m 68 198 l 48 648 l 174 648 l 154 206 z m 40 59 q 40 78 50 94 q 59 110 76 120 q 92 129 111 129 q 130 129 146 120 q 163 110 172 94 q 182 78 182 59 q 182 40 172 24 q 163 8 146 -2 q 130 -11 111 -11 q 92 -11 76 -2 q 59 8 50 24 q 40 40 40 59 z"},"/":{"x_min":0,"x_max":513,"ha":513,"o":"m 138 -141 l 42 -111 l 377 775 l 472 744 z"},"[":{"x_min":0,"x_max":360,"ha":360,"o":"m 80 -121 l 80 738 l 342 738 l 342 645 l 189 645 l 189 -28 l 342 -28 l 342 -121 z"},"6":{"x_min":0,"x_max":540,"ha":540,"o":"m 502 210 q 502 130 468 80 q 434 30 382 8 q 331 -13 273 -13 q 202 -13 151 20 q 100 54 74 115 q 48 176 48 258 q 48 390 84 480 q 121 571 184 616 q 248 660 328 660 q 390 660 457 637 l 434 553 q 384 572 327 572 q 191 572 166 374 q 197 394 233 406 q 269 419 308 419 q 361 419 405 396 q 449 373 476 326 q 502 279 502 210 z m 394 202 q 394 268 368 300 q 341 333 277 333 q 248 333 220 323 q 191 313 160 294 q 159 282 159 258 q 159 78 277 78 q 333 78 364 110 q 394 143 394 202 z"},"r":{"x_min":0,"x_max":371,"ha":371,"o":"m 358 448 l 340 338 q 324 344 310 347 q 296 350 279 350 q 250 350 224 337 q 199 324 174 288 l 174 0 l 66 0 l 66 443 l 174 453 l 174 390 q 198 423 230 440 q 263 457 300 457 q 328 457 358 448 z"},"2":{"x_min":0,"x_max":540,"ha":540,"o":"m 475 94 l 475 0 l 44 0 l 44 53 q 172 182 234 250 q 296 318 326 368 q 355 417 355 460 q 355 509 329 535 q 303 561 255 561 q 180 561 103 496 l 44 567 q 90 610 148 635 q 206 660 269 660 q 327 660 374 639 q 420 618 446 576 q 473 535 473 478 q 473 423 448 370 q 424 317 370 253 q 316 189 219 94 z"},"{":{"x_min":0,"x_max":360,"ha":360,"o":"m 113 29 q 113 41 116 66 q 119 92 120 104 q 128 162 128 182 q 128 214 120 231 q 111 248 92 256 q 73 263 40 264 l 40 352 q 73 353 92 360 q 111 368 120 385 q 128 402 128 434 q 128 454 120 512 q 119 524 116 550 q 113 575 113 587 q 113 661 167 699 q 221 737 322 746 l 340 651 q 294 649 268 640 q 242 631 231 615 q 220 599 220 573 q 220 558 226 504 q 233 452 233 426 q 233 389 220 364 q 206 338 184 324 q 162 311 137 308 q 162 305 184 292 q 206 278 220 252 q 233 226 233 190 q 233 165 226 112 q 220 58 220 43 q 220 17 231 0 q 242 -16 268 -26 q 294 -37 340 -42 l 322 -130 q 221 -121 167 -83 q 113 -45 113 29 z"},"9":{"x_min":0,"x_max":540,"ha":540,"o":"m 492 393 q 492 259 457 168 q 422 77 359 32 q 296 -13 211 -13 q 146 -13 79 12 l 105 94 q 130 84 158 78 q 186 73 212 73 q 351 73 378 272 q 306 224 230 224 q 176 224 132 248 q 89 271 63 320 q 37 369 37 441 q 37 512 68 561 q 100 610 152 635 q 204 660 266 660 q 339 660 390 628 q 440 596 466 536 q 492 476 492 393 z m 384 351 q 385 364 385 391 q 385 574 266 574 q 209 574 176 540 q 143 505 143 445 q 143 380 170 346 q 198 311 261 311 q 293 311 322 321 q 352 331 384 351 z"}," ":{"x_min":0,"x_max":233,"ha":233,"o":""},"I":{"x_min":0,"x_max":269,"ha":269,"o":"m 77 0 l 77 648 l 191 648 l 191 0 z"},"H":{"x_min":0,"x_max":712,"ha":712,"o":"m 521 648 l 635 648 l 635 0 l 521 0 l 521 281 l 191 281 l 191 0 l 77 0 l 77 648 l 191 648 l 191 378 l 521 378 z"},"4":{"x_min":0,"x_max":540,"ha":540,"o":"m 515 239 l 515 146 l 430 146 l 430 0 l 316 0 l 316 146 l 24 146 l 24 196 l 206 648 l 334 648 l 157 239 l 316 239 l 337 424 l 430 424 l 430 239 z"},"~":{"x_min":0,"x_max":540,"ha":540,"o":"m 242 228 q 225 238 213 243 q 201 248 190 248 q 169 248 155 238 q 141 227 127 201 l 59 226 q 82 286 116 314 q 151 343 201 343 q 229 343 252 334 q 274 326 301 310 q 318 300 330 295 q 342 290 353 290 q 372 290 386 300 q 399 310 413 337 l 481 312 q 458 252 424 224 q 389 195 342 195 q 314 195 292 204 q 269 212 242 228 z"},"D":{"x_min":0,"x_max":669,"ha":669,"o":"m 628 324 q 628 215 582 142 q 535 70 454 35 q 373 0 270 0 l 77 0 l 77 648 l 281 648 q 448 648 538 572 q 628 497 628 324 z m 506 324 q 506 444 452 498 q 397 551 283 551 l 191 551 l 191 97 l 253 97 q 338 97 392 116 q 447 135 476 184 q 506 234 506 324 z"},"^":{"x_min":0,"x_max":540,"ha":540,"o":"m 484 327 l 367 327 l 266 540 l 168 327 l 56 327 l 221 648 l 319 648 z"},"0":{"x_min":0,"x_max":540,"ha":540,"o":"m 30 323 q 30 449 66 524 q 102 600 158 630 q 213 661 277 661 q 388 661 449 576 q 510 490 510 322 q 510 195 474 120 q 439 46 384 16 q 330 -13 264 -13 q 151 -13 90 72 q 30 157 30 323 z m 394 323 q 394 444 364 504 q 334 565 273 565 q 209 565 178 507 q 146 449 146 323 q 146 200 176 141 q 205 82 268 82 q 312 82 340 106 q 367 130 380 183 q 394 236 394 323 z"},"F":{"x_min":0,"x_max":522,"ha":522,"o":"m 495 554 l 191 554 l 191 360 l 454 360 l 442 266 l 191 266 l 191 0 l 77 0 l 77 648 l 495 648 z"},"`":{"x_min":0,"x_max":304,"ha":304,"o":"m 238 489 l 51 583 l 110 670 l 276 539 z"},"k":{"x_min":0,"x_max":485,"ha":485,"o":"m 292 238 l 475 7 l 475 0 l 346 0 l 174 227 l 174 0 l 66 0 l 66 688 l 174 699 l 174 242 l 349 443 l 466 443 l 466 437 z"},"u":{"x_min":0,"x_max":524,"ha":524,"o":"m 458 453 l 458 0 l 364 0 l 356 34 q 278 -13 199 -13 q 136 -13 98 23 q 61 59 61 126 l 61 442 l 169 453 l 169 158 q 169 128 176 110 q 182 92 198 84 q 214 75 242 75 q 286 75 350 109 l 350 442 z"},"]":{"x_min":0,"x_max":360,"ha":360,"o":"m 18 -121 l 18 -28 l 171 -28 l 171 645 l 18 645 l 18 738 l 280 738 l 280 -121 z"},"U":{"x_min":0,"x_max":680,"ha":680,"o":"m 62 261 l 62 648 l 176 648 l 176 280 q 176 187 215 136 q 254 84 343 84 q 504 84 504 272 l 504 648 l 618 648 l 618 264 q 618 167 581 106 q 544 44 481 16 q 418 -13 336 -13 q 243 -13 182 23 q 120 59 91 120 q 62 182 62 261 z"},"o":{"x_min":0,"x_max":522,"ha":522,"o":"m 34 223 q 34 306 66 358 q 97 410 150 434 q 203 457 269 457 q 342 457 391 426 q 440 396 464 343 q 489 290 489 222 q 489 140 458 88 q 426 35 373 11 q 320 -13 253 -13 q 181 -13 132 18 q 83 50 58 104 q 34 157 34 223 z m 376 223 q 376 294 348 334 q 321 373 264 373 q 201 373 174 334 q 146 295 146 223 q 146 153 174 112 q 203 71 261 71 q 323 71 350 112 q 376 152 376 223 z"},"N":{"x_min":0,"x_max":705,"ha":705,"o":"m 628 648 l 628 0 l 503 0 l 254 368 q 249 376 234 398 q 220 419 208 438 q 197 458 188 478 l 188 0 l 77 0 l 77 648 l 199 648 l 460 262 q 465 255 478 236 q 491 216 501 200 q 511 183 518 167 l 518 648 z"},"+":{"x_min":0,"x_max":540,"ha":540,"o":"m 220 56 l 220 209 l 66 209 l 66 301 l 220 301 l 220 454 l 320 454 l 320 301 l 474 301 l 474 209 l 320 209 l 320 56 z"},"G":{"x_min":0,"x_max":645,"ha":645,"o":"m 591 365 l 591 46 q 528 15 473 1 q 418 -13 353 -13 q 244 -13 175 30 q 106 73 74 148 q 42 222 42 322 q 42 439 84 515 q 127 591 198 626 q 269 661 357 661 q 480 661 575 601 l 527 517 q 452 565 365 565 q 260 565 210 502 q 161 439 161 327 q 161 208 208 146 q 254 85 358 85 q 419 85 477 106 l 477 271 l 323 271 l 336 365 z"},"q":{"x_min":0,"x_max":525,"ha":525,"o":"m 460 425 l 460 -186 l 352 -186 l 352 27 q 283 -13 215 -13 q 156 -13 116 14 q 75 42 54 92 q 34 141 34 208 q 34 298 72 354 q 110 409 168 432 q 225 456 287 456 q 323 456 363 450 q 403 443 460 425 z m 352 103 l 352 367 q 321 374 290 374 q 227 374 187 334 q 147 294 147 207 q 147 142 172 108 q 196 73 245 73 q 293 73 352 103 z"},"d":{"x_min":0,"x_max":525,"ha":525,"o":"m 460 699 l 460 0 l 365 0 l 358 33 q 287 -13 219 -13 q 129 -13 82 46 q 34 104 34 211 q 34 292 66 348 q 97 403 149 430 q 201 457 264 457 q 306 457 352 444 l 352 688 z m 248 73 q 298 73 352 105 l 352 364 q 317 376 277 376 q 239 376 210 358 q 180 340 164 303 q 147 266 147 212 q 147 73 248 73 z"},"1":{"x_min":0,"x_max":540,"ha":540,"o":"m 351 94 l 481 94 l 481 0 l 73 0 l 73 94 l 239 94 l 239 528 l 103 457 l 59 522 l 239 648 l 351 648 z"},"5":{"x_min":0,"x_max":540,"ha":540,"o":"m 484 204 q 484 142 458 94 q 433 45 378 16 q 323 -12 238 -12 q 139 -12 55 28 l 94 112 q 163 81 232 81 q 277 81 308 96 q 339 112 354 138 q 369 163 369 195 q 369 234 356 260 q 343 287 310 302 q 277 317 219 317 q 190 317 168 314 q 146 311 133 307 l 94 342 l 94 648 l 464 648 l 452 555 l 206 555 l 206 400 q 236 405 261 405 q 331 405 381 382 q 431 358 458 313 q 484 268 484 204 z"}}}
